<mxfile host="app.diagrams.net" modified="2024-07-17T01:01:06.335Z" agent="Mozilla/5.0 (Windows NT 10.0; Win64; x64) AppleWebKit/537.36 (KHTML, like Gecko) Chrome/126.0.0.0 Safari/537.36" version="24.6.5" etag="CxK1WrekL3TAGgKgu8jR" type="github">
  <diagram name="Page-1" id="drvWwoh4-EsniAYj6IIH">
    <mxGraphModel>
      <root>
        <mxCell id="0" />
        <mxCell id="1" parent="0" />
      </root>
    </mxGraphModel>
  </diagram>
</mxfile>
